<svg xmlns="http://www.w3.org/2000/svg" xmlns:xlink="http://www.w3.org/1999/xlink" width="500" zoomAndPan="magnify" viewBox="0 0 375 374.999991" height="500" preserveAspectRatio="xMidYMid meet" version="1.0"><defs><clipPath id="4ba79e44c4"><path d="M 45.335938 59.699219 L 329.664062 59.699219 L 329.664062 315.300781 L 45.335938 315.300781 Z M 45.335938 59.699219 " clip-rule="nonzero"/></clipPath><clipPath id="e64900a4dc"><path d="M 62.585938 59.699219 L 312.414062 59.699219 C 316.988281 59.699219 321.378906 61.519531 324.613281 64.753906 C 327.847656 67.988281 329.664062 72.375 329.664062 76.949219 L 329.664062 298.050781 C 329.664062 302.625 327.847656 307.011719 324.613281 310.246094 C 321.378906 313.480469 316.988281 315.300781 312.414062 315.300781 L 62.585938 315.300781 C 58.011719 315.300781 53.621094 313.480469 50.386719 310.246094 C 47.152344 307.011719 45.335938 302.625 45.335938 298.050781 L 45.335938 76.949219 C 45.335938 72.375 47.152344 67.988281 50.386719 64.753906 C 53.621094 61.519531 58.011719 59.699219 62.585938 59.699219 " clip-rule="nonzero"/></clipPath><clipPath id="6fbf7545b7"><path d="M 87.207031 90 L 287.457031 90 L 287.457031 284 L 87.207031 284 Z M 87.207031 90 " clip-rule="nonzero"/></clipPath><clipPath id="a391c45d09"><path d="M 87.207031 90 L 287.457031 90 L 287.457031 144 L 87.207031 144 Z M 87.207031 90 " clip-rule="nonzero"/></clipPath></defs><rect x="-37.5" width="450" fill="#ffffff" y="-37.499999" height="449.999989" fill-opacity="1"/><rect x="-37.5" width="450" fill="#ffffff" y="-37.499999" height="449.999989" fill-opacity="1"/><rect x="-37.5" width="450" fill="#63e1b4" y="-37.499999" height="449.999989" fill-opacity="1"/><g clip-path="url(#4ba79e44c4)"><g clip-path="url(#e64900a4dc)"><path fill="#ffffff" d="M 45.335938 59.699219 L 329.664062 59.699219 L 329.664062 315.300781 L 45.335938 315.300781 Z M 45.335938 59.699219 " fill-opacity="1" fill-rule="nonzero"/></g></g><g clip-path="url(#6fbf7545b7)"><path fill="#cbe3e3" d="M 210.054688 283.898438 L 255.496094 238.453125 L 244.136719 158.929688 L 261.015625 167.371094 C 264.351562 169.039062 268.410156 167.960938 270.480469 164.855469 L 286.214844 141.253906 C 288.171875 138.320312 287.785156 134.414062 285.289062 131.917969 L 271.238281 117.867188 C 260.886719 107.515625 248.265625 99.714844 234.378906 95.085938 L 221.414062 90.765625 L 153.25 90.765625 L 140.289062 95.085938 C 126.398438 99.714844 113.777344 107.515625 103.425781 117.867188 L 89.375 131.917969 C 86.878906 134.414062 86.492188 138.320312 88.449219 141.253906 L 104.183594 164.855469 C 106.253906 167.960938 110.3125 169.039062 113.648438 167.371094 L 130.527344 158.929688 L 119.167969 238.453125 L 164.609375 283.898438 Z M 210.054688 283.898438 " fill-opacity="1" fill-rule="nonzero"/></g><g clip-path="url(#a391c45d09)"><path fill="#bdc3c7" d="M 89.628906 143.023438 L 103.425781 129.226562 C 113.777344 118.875 126.398438 111.078125 140.285156 106.445312 L 153.25 102.125 L 221.414062 102.125 L 234.375 106.445312 C 248.265625 111.078125 260.886719 118.875 271.238281 129.226562 L 285.03125 143.023438 L 286.210938 141.253906 C 288.167969 138.320312 287.78125 134.414062 285.289062 131.917969 L 271.238281 117.867188 C 260.882812 107.515625 248.265625 99.714844 234.375 95.085938 L 221.414062 90.765625 L 153.25 90.765625 L 140.289062 95.085938 C 126.398438 99.714844 113.777344 107.515625 103.425781 117.867188 L 89.375 131.917969 C 86.878906 134.414062 86.492188 138.320312 88.449219 141.253906 Z M 89.628906 143.023438 " fill-opacity="0.6" fill-rule="nonzero"/></g><path fill="#5b5869" d="M 221.414062 90.765625 C 221.414062 109.589844 206.15625 124.847656 187.332031 124.847656 C 168.507812 124.847656 153.25 109.589844 153.25 90.765625 " fill-opacity="1" fill-rule="nonzero"/><path fill="#5b5869" d="M 252.65625 238.453125 C 229.125 238.453125 210.054688 257.527344 210.054688 281.058594 C 210.054688 281.980469 210.09375 282.894531 210.148438 283.800781 L 255.398438 238.550781 C 254.492188 238.496094 253.578125 238.453125 252.65625 238.453125 Z M 252.65625 238.453125 " fill-opacity="1" fill-rule="nonzero"/><path fill="#bdc3c7" d="M 210.351562 283.601562 C 212.285156 263.34375 228.398438 247.226562 248.65625 245.292969 L 255.398438 238.550781 C 254.492188 238.496094 253.578125 238.457031 252.65625 238.457031 C 229.128906 238.457031 210.054688 257.527344 210.054688 281.058594 C 210.054688 281.980469 210.09375 282.894531 210.152344 283.800781 Z M 210.351562 283.601562 " fill-opacity="1" fill-rule="nonzero"/><path fill="#5b5869" d="M 164.609375 281.058594 C 164.609375 257.527344 145.535156 238.453125 122.007812 238.453125 C 121.085938 238.453125 120.171875 238.496094 119.265625 238.550781 L 164.511719 283.800781 C 164.570312 282.894531 164.609375 281.980469 164.609375 281.058594 Z M 164.609375 281.058594 " fill-opacity="1" fill-rule="nonzero"/><path fill="#bdc3c7" d="M 164.425781 283.714844 L 164.511719 283.800781 C 164.570312 282.894531 164.609375 281.980469 164.609375 281.058594 C 164.609375 257.527344 145.535156 238.457031 122.007812 238.457031 C 121.085938 238.457031 120.171875 238.496094 119.265625 238.550781 L 125.894531 245.179688 C 146.320312 247.027344 162.578125 263.289062 164.425781 283.714844 Z M 164.425781 283.714844 " fill-opacity="1" fill-rule="nonzero"/><path fill="#ffffff" d="M 221.414062 170.289062 C 221.414062 171.40625 221.359375 172.519531 221.25 173.632812 C 221.140625 174.742188 220.976562 175.84375 220.757812 176.941406 C 220.542969 178.035156 220.269531 179.117188 219.945312 180.183594 C 219.621094 181.253906 219.246094 182.300781 218.820312 183.332031 C 218.390625 184.363281 217.914062 185.371094 217.390625 186.355469 C 216.863281 187.339844 216.289062 188.296875 215.671875 189.226562 C 215.050781 190.152344 214.386719 191.050781 213.675781 191.914062 C 212.96875 192.773438 212.222656 193.601562 211.429688 194.390625 C 210.640625 195.179688 209.816406 195.929688 208.953125 196.636719 C 208.089844 197.34375 207.195312 198.007812 206.265625 198.628906 C 205.339844 199.25 204.382812 199.824219 203.398438 200.347656 C 202.414062 200.875 201.40625 201.351562 200.375 201.777344 C 199.34375 202.207031 198.292969 202.582031 197.226562 202.90625 C 196.15625 203.230469 195.074219 203.5 193.980469 203.71875 C 192.886719 203.9375 191.785156 204.101562 190.671875 204.210938 C 189.5625 204.320312 188.449219 204.375 187.332031 204.375 C 186.214844 204.375 185.101562 204.320312 183.992188 204.210938 C 182.878906 204.101562 181.777344 203.9375 180.683594 203.71875 C 179.585938 203.5 178.507812 203.230469 177.4375 202.90625 C 176.371094 202.582031 175.320312 202.207031 174.289062 201.777344 C 173.257812 201.351562 172.25 200.875 171.265625 200.347656 C 170.28125 199.824219 169.324219 199.25 168.398438 198.628906 C 167.46875 198.007812 166.574219 197.34375 165.710938 196.636719 C 164.847656 195.929688 164.019531 195.179688 163.230469 194.390625 C 162.441406 193.601562 161.695312 192.773438 160.984375 191.914062 C 160.277344 191.050781 159.613281 190.152344 158.992188 189.226562 C 158.375 188.296875 157.800781 187.339844 157.273438 186.355469 C 156.746094 185.371094 156.269531 184.363281 155.84375 183.332031 C 155.417969 182.300781 155.042969 181.253906 154.71875 180.183594 C 154.394531 179.117188 154.121094 178.035156 153.90625 176.941406 C 153.6875 175.84375 153.523438 174.742188 153.414062 173.632812 C 153.304688 172.519531 153.25 171.40625 153.25 170.289062 C 153.25 169.175781 153.304688 168.0625 153.414062 166.949219 C 153.523438 165.839844 153.6875 164.738281 153.90625 163.640625 C 154.121094 162.546875 154.394531 161.464844 154.71875 160.398438 C 155.042969 159.328125 155.417969 158.28125 155.84375 157.25 C 156.269531 156.21875 156.746094 155.210938 157.273438 154.226562 C 157.800781 153.238281 158.375 152.285156 158.992188 151.355469 C 159.613281 150.425781 160.277344 149.53125 160.984375 148.667969 C 161.695312 147.804688 162.441406 146.980469 163.230469 146.191406 C 164.019531 145.402344 164.847656 144.652344 165.710938 143.945312 C 166.574219 143.238281 167.46875 142.574219 168.398438 141.953125 C 169.324219 141.332031 170.28125 140.757812 171.265625 140.234375 C 172.25 139.707031 173.257812 139.230469 174.289062 138.804688 C 175.320312 138.375 176.371094 138 177.4375 137.675781 C 178.507812 137.351562 179.585938 137.082031 180.683594 136.863281 C 181.777344 136.644531 182.878906 136.480469 183.992188 136.371094 C 185.101562 136.261719 186.214844 136.207031 187.332031 136.207031 C 188.449219 136.207031 189.5625 136.261719 190.671875 136.371094 C 191.785156 136.480469 192.886719 136.644531 193.980469 136.863281 C 195.074219 137.082031 196.15625 137.351562 197.226562 137.675781 C 198.292969 138 199.34375 138.375 200.375 138.804688 C 201.40625 139.230469 202.414062 139.707031 203.398438 140.234375 C 204.382812 140.757812 205.339844 141.332031 206.265625 141.953125 C 207.195312 142.574219 208.089844 143.238281 208.953125 143.945312 C 209.816406 144.652344 210.640625 145.402344 211.429688 146.191406 C 212.222656 146.980469 212.96875 147.804688 213.675781 148.667969 C 214.386719 149.53125 215.050781 150.425781 215.671875 151.355469 C 216.289062 152.285156 216.863281 153.238281 217.390625 154.226562 C 217.914062 155.210938 218.390625 156.21875 218.820312 157.25 C 219.246094 158.28125 219.621094 159.328125 219.945312 160.398438 C 220.269531 161.464844 220.542969 162.546875 220.757812 163.640625 C 220.976562 164.738281 221.140625 165.839844 221.25 166.949219 C 221.359375 168.0625 221.414062 169.175781 221.414062 170.289062 Z M 221.414062 170.289062 " fill-opacity="1" fill-rule="nonzero"/><path fill="#f36e81" d="M 210.054688 168.472656 C 210.054688 161.585938 204.964844 157.113281 198.691406 157.113281 C 192.417969 157.113281 187.332031 162.199219 187.332031 168.472656 C 187.332031 162.199219 182.246094 157.113281 175.96875 157.113281 C 169.695312 157.113281 164.609375 161.242188 164.609375 168.472656 C 164.609375 180.179688 187.332031 191.195312 187.332031 191.195312 C 187.332031 191.195312 210.054688 180.523438 210.054688 168.472656 Z M 210.054688 168.472656 " fill-opacity="1" fill-rule="nonzero"/><path fill="#bdc3c7" d="M 198.691406 157.113281 C 195.976562 157.113281 193.480469 158.070312 191.527344 159.660156 C 195.722656 161.1875 198.691406 165.03125 198.691406 170.289062 C 198.691406 177.800781 189.867188 184.773438 183.21875 188.964844 C 185.652344 190.378906 187.332031 191.195312 187.332031 191.195312 C 187.332031 191.195312 210.054688 180.523438 210.054688 168.472656 C 210.054688 161.585938 204.964844 157.113281 198.691406 157.113281 Z M 198.691406 157.113281 " fill-opacity="0.4471" fill-rule="nonzero"/></svg>