<svg xmlns="http://www.w3.org/2000/svg" xmlns:xlink="http://www.w3.org/1999/xlink" width="500" zoomAndPan="magnify" viewBox="0 0 375 374.999991" height="500" preserveAspectRatio="xMidYMid meet" version="1.0"><defs><clipPath id="2c78fc8403"><path d="M 45.335938 59.699219 L 329.664062 59.699219 L 329.664062 315.300781 L 45.335938 315.300781 Z M 45.335938 59.699219 " clip-rule="nonzero"/></clipPath><clipPath id="9218ad2eea"><path d="M 62.585938 59.699219 L 312.414062 59.699219 C 316.988281 59.699219 321.378906 61.519531 324.613281 64.753906 C 327.847656 67.988281 329.664062 72.375 329.664062 76.949219 L 329.664062 298.050781 C 329.664062 302.625 327.847656 307.011719 324.613281 310.246094 C 321.378906 313.480469 316.988281 315.300781 312.414062 315.300781 L 62.585938 315.300781 C 58.011719 315.300781 53.621094 313.480469 50.386719 310.246094 C 47.152344 307.011719 45.335938 302.625 45.335938 298.050781 L 45.335938 76.949219 C 45.335938 72.375 47.152344 67.988281 50.386719 64.753906 C 53.621094 61.519531 58.011719 59.699219 62.585938 59.699219 " clip-rule="nonzero"/></clipPath><clipPath id="26bee59c8f"><path d="M 142 79.300781 L 233 79.300781 L 233 98 L 142 98 Z M 142 79.300781 " clip-rule="nonzero"/></clipPath><clipPath id="d13fb78aff"><path d="M 139 79.300781 L 236 79.300781 L 236 296.050781 L 139 296.050781 Z M 139 79.300781 " clip-rule="nonzero"/></clipPath><clipPath id="d4cf2438f2"><path d="M 146 284 L 181 284 L 181 296.050781 L 146 296.050781 Z M 146 284 " clip-rule="nonzero"/></clipPath><clipPath id="189971eb1c"><path d="M 195 284 L 230 284 L 230 296.050781 L 195 296.050781 Z M 195 284 " clip-rule="nonzero"/></clipPath></defs><rect x="-37.5" width="450" fill="#ffffff" y="-37.499999" height="449.999989" fill-opacity="1"/><rect x="-37.5" width="450" fill="#ffffff" y="-37.499999" height="449.999989" fill-opacity="1"/><rect x="-37.5" width="450" fill="#63e1b4" y="-37.499999" height="449.999989" fill-opacity="1"/><g clip-path="url(#2c78fc8403)"><g clip-path="url(#9218ad2eea)"><path fill="#ffffff" d="M 45.335938 59.699219 L 329.664062 59.699219 L 329.664062 315.300781 L 45.335938 315.300781 Z M 45.335938 59.699219 " fill-opacity="1" fill-rule="nonzero"/></g></g><g clip-path="url(#26bee59c8f)"><path fill="#a0c5f0" d="M 142.832031 83.039062 L 142.832031 97.988281 L 232.523438 97.988281 L 232.523438 83.039062 C 232.523438 80.976562 230.847656 79.300781 228.785156 79.300781 L 146.570312 79.300781 C 144.507812 79.300781 142.832031 80.976562 142.832031 83.039062 Z M 142.832031 83.039062 " fill-opacity="1" fill-rule="nonzero"/></g><g clip-path="url(#d13fb78aff)"><path fill="#b4e7fa" d="M 228.503906 94.25 L 210.101562 94.25 L 210.101562 83.039062 C 210.101562 80.976562 208.425781 79.300781 206.363281 79.300781 C 204.300781 79.300781 202.625 80.976562 202.625 83.039062 L 202.625 94.25 L 172.730469 94.25 L 172.730469 83.039062 C 172.730469 80.976562 171.054688 79.300781 168.992188 79.300781 C 166.929688 79.300781 165.253906 80.976562 165.253906 83.039062 L 165.253906 94.25 L 146.851562 94.25 C 142.617188 94.25 139.226562 97.769531 139.382812 102 L 146.4375 292.453125 C 146.511719 294.460938 148.160156 296.050781 150.171875 296.050781 L 176.464844 296.050781 C 178.53125 296.050781 180.203125 294.378906 180.203125 292.316406 L 180.203125 146.570312 C 180.203125 142.441406 183.550781 139.097656 187.675781 139.097656 C 191.804688 139.097656 195.152344 142.441406 195.152344 146.570312 L 195.152344 292.316406 C 195.152344 294.378906 196.824219 296.054688 198.890625 296.054688 L 225.183594 296.054688 C 227.195312 296.054688 228.84375 294.464844 228.917969 292.453125 L 235.972656 102.003906 C 236.128906 97.769531 232.738281 94.25 228.503906 94.25 Z M 228.503906 94.25 " fill-opacity="1" fill-rule="nonzero"/></g><path fill="#a0c5f0" d="M 232.664062 114.664062 C 225.441406 114.664062 219.582031 108.808594 219.582031 101.582031 L 219.582031 94.25 L 213.835938 94.25 L 213.835938 101.726562 C 213.835938 112.042969 222.203125 120.410156 232.523438 120.410156 L 235.289062 120.410156 L 235.503906 114.664062 Z M 232.664062 114.664062 " fill-opacity="1" fill-rule="nonzero"/><path fill="#a0c5f0" d="M 142.691406 114.664062 C 149.914062 114.664062 155.773438 108.808594 155.773438 101.582031 L 155.773438 94.25 L 161.519531 94.25 L 161.519531 101.726562 C 161.519531 112.042969 153.152344 120.410156 142.832031 120.410156 L 140.066406 120.410156 L 139.851562 114.664062 Z M 142.691406 114.664062 " fill-opacity="1" fill-rule="nonzero"/><path fill="#a0c5f0" d="M 183.941406 140.132812 C 185.042969 139.488281 186.308594 139.09375 187.675781 139.09375 C 189.046875 139.09375 190.3125 139.488281 191.414062 140.132812 L 191.414062 94.25 L 183.941406 94.25 Z M 183.941406 140.132812 " fill-opacity="1" fill-rule="nonzero"/><g clip-path="url(#d4cf2438f2)"><path fill="#a0c5f0" d="M 180.203125 292.316406 L 180.203125 284.839844 L 146.15625 284.839844 L 146.4375 292.453125 C 146.511719 294.460938 148.160156 296.050781 150.171875 296.050781 L 176.464844 296.050781 C 178.53125 296.050781 180.203125 294.378906 180.203125 292.316406 Z M 180.203125 292.316406 " fill-opacity="1" fill-rule="nonzero"/></g><g clip-path="url(#189971eb1c)"><path fill="#a0c5f0" d="M 228.917969 292.453125 L 229.199219 284.839844 L 195.152344 284.839844 L 195.152344 292.316406 C 195.152344 294.378906 196.824219 296.050781 198.890625 296.050781 L 225.183594 296.050781 C 227.195312 296.050781 228.84375 294.460938 228.917969 292.453125 Z M 228.917969 292.453125 " fill-opacity="1" fill-rule="nonzero"/></g></svg>