<svg xmlns="http://www.w3.org/2000/svg" xmlns:xlink="http://www.w3.org/1999/xlink" width="500" zoomAndPan="magnify" viewBox="0 0 375 374.999991" height="500" preserveAspectRatio="xMidYMid meet" version="1.0"><defs><clipPath id="bbf1e11f2f"><path d="M 45.335938 59.699219 L 329.664062 59.699219 L 329.664062 315.300781 L 45.335938 315.300781 Z M 45.335938 59.699219 " clip-rule="nonzero"/></clipPath><clipPath id="a19f18dd13"><path d="M 62.585938 59.699219 L 312.414062 59.699219 C 316.988281 59.699219 321.378906 61.519531 324.613281 64.753906 C 327.847656 67.988281 329.664062 72.375 329.664062 76.949219 L 329.664062 298.050781 C 329.664062 302.625 327.847656 307.011719 324.613281 310.246094 C 321.378906 313.480469 316.988281 315.300781 312.414062 315.300781 L 62.585938 315.300781 C 58.011719 315.300781 53.621094 313.480469 50.386719 310.246094 C 47.152344 307.011719 45.335938 302.625 45.335938 298.050781 L 45.335938 76.949219 C 45.335938 72.375 47.152344 67.988281 50.386719 64.753906 C 53.621094 61.519531 58.011719 59.699219 62.585938 59.699219 " clip-rule="nonzero"/></clipPath><clipPath id="d1103bb471"><path d="M 92 91.605469 L 283 91.605469 L 283 283.605469 L 92 283.605469 Z M 92 91.605469 " clip-rule="nonzero"/></clipPath><clipPath id="82475e0cbf"><path d="M 144 91.605469 L 231 91.605469 L 231 135 L 144 135 Z M 144 91.605469 " clip-rule="nonzero"/></clipPath><clipPath id="abb0792cdd"><path d="M 154 91.605469 L 221 91.605469 L 221 125 L 154 125 Z M 154 91.605469 " clip-rule="nonzero"/></clipPath><clipPath id="81f777a28b"><path d="M 128 273 L 248 273 L 248 283.605469 L 128 283.605469 Z M 128 273 " clip-rule="nonzero"/></clipPath></defs><rect x="-37.5" width="450" fill="#ffffff" y="-37.499999" height="449.999989" fill-opacity="1"/><rect x="-37.5" width="450" fill="#ffffff" y="-37.499999" height="449.999989" fill-opacity="1"/><rect x="-37.5" width="450" fill="#63e1b4" y="-37.499999" height="449.999989" fill-opacity="1"/><g clip-path="url(#bbf1e11f2f)"><g clip-path="url(#a19f18dd13)"><path fill="#ffffff" d="M 45.335938 59.699219 L 329.664062 59.699219 L 329.664062 315.300781 L 45.335938 315.300781 Z M 45.335938 59.699219 " fill-opacity="1" fill-rule="nonzero"/></g></g><g clip-path="url(#d1103bb471)"><path fill="#ff5a64" d="M 275.816406 114.382812 C 274.515625 106.582031 268.710938 100.296875 261.039062 98.378906 L 239.484375 92.988281 C 235.808594 92.070312 232.035156 91.605469 228.246094 91.605469 L 146.964844 91.605469 C 143.175781 91.605469 139.402344 92.070312 135.726562 92.988281 L 114.171875 98.378906 C 106.5 100.296875 100.695312 106.582031 99.394531 114.382812 L 92.511719 155.695312 C 91.984375 158.839844 93.78125 161.914062 96.777344 163.003906 L 128.019531 174.363281 L 128.019531 280.296875 C 128.019531 282.125 129.5 283.605469 131.328125 283.605469 L 243.882812 283.605469 C 245.710938 283.605469 247.191406 282.125 247.191406 280.296875 L 247.191406 174.363281 L 278.433594 163.003906 C 281.429688 161.914062 283.226562 158.839844 282.699219 155.695312 Z M 275.816406 114.382812 " fill-opacity="1" fill-rule="nonzero"/></g><g clip-path="url(#82475e0cbf)"><path fill="#d74b55" d="M 230.640625 91.671875 C 229.84375 91.628906 229.046875 91.605469 228.246094 91.605469 L 146.964844 91.605469 C 146.167969 91.605469 145.367188 91.628906 144.570312 91.671875 C 144.609375 115.410156 163.859375 134.640625 187.605469 134.640625 C 211.351562 134.640625 230.601562 115.410156 230.640625 91.671875 Z M 230.640625 91.671875 " fill-opacity="1" fill-rule="nonzero"/></g><path fill="#d74b55" d="M 121.234375 121.234375 L 104.296875 104.296875 C 101.78125 107.0625 100.035156 110.535156 99.394531 114.382812 L 92.511719 155.695312 C 91.984375 158.839844 93.78125 161.914062 96.777344 163.003906 L 128.019531 174.363281 L 128.019531 137.617188 C 128.019531 131.472656 125.578125 125.578125 121.234375 121.234375 Z M 121.234375 121.234375 " fill-opacity="1" fill-rule="nonzero"/><g clip-path="url(#abb0792cdd)"><path fill="#c8414b" d="M 220.710938 91.605469 C 220.710938 109.886719 205.886719 124.710938 187.605469 124.710938 C 169.324219 124.710938 154.503906 109.886719 154.503906 91.605469 " fill-opacity="1" fill-rule="nonzero"/></g><path fill="#ff5a64" d="M 93.667969 148.757812 L 92.511719 155.695312 C 91.984375 158.839844 93.78125 161.914062 96.777344 163.003906 L 128.019531 174.363281 L 128.019531 161.125 Z M 93.667969 148.757812 " fill-opacity="1" fill-rule="nonzero"/><path fill="#c8414b" d="M 124.710938 137.949219 C 122.882812 137.949219 121.398438 139.433594 121.398438 141.261719 L 121.398438 171.957031 L 128.019531 174.363281 L 128.019531 141.261719 C 128.019531 139.433594 126.539062 137.949219 124.710938 137.949219 Z M 124.710938 137.949219 " fill-opacity="1" fill-rule="nonzero"/><path fill="#d74b55" d="M 121.398438 171.957031 L 128.019531 174.363281 L 128.019531 161.121094 L 121.398438 158.738281 Z M 121.398438 171.957031 " fill-opacity="1" fill-rule="nonzero"/><path fill="#d74b55" d="M 253.980469 121.234375 L 270.914062 104.296875 C 273.429688 107.0625 275.175781 110.535156 275.816406 114.382812 L 282.699219 155.695312 C 283.222656 158.839844 281.429688 161.914062 278.433594 163.003906 L 247.191406 174.363281 L 247.191406 137.617188 C 247.191406 131.472656 249.632812 125.578125 253.980469 121.234375 Z M 253.980469 121.234375 " fill-opacity="1" fill-rule="nonzero"/><path fill="#ff5a64" d="M 281.542969 148.757812 L 282.699219 155.695312 C 283.226562 158.839844 281.429688 161.914062 278.433594 163.003906 L 247.191406 174.363281 L 247.191406 161.125 Z M 281.542969 148.757812 " fill-opacity="1" fill-rule="nonzero"/><path fill="#c8414b" d="M 250.503906 137.949219 C 252.332031 137.949219 253.8125 139.433594 253.8125 141.261719 L 253.8125 171.957031 L 247.191406 174.363281 L 247.191406 141.261719 C 247.191406 139.433594 248.675781 137.949219 250.503906 137.949219 Z M 250.503906 137.949219 " fill-opacity="1" fill-rule="nonzero"/><path fill="#d74b55" d="M 253.8125 171.957031 L 247.191406 174.363281 L 247.191406 161.121094 L 253.8125 158.738281 Z M 253.8125 171.957031 " fill-opacity="1" fill-rule="nonzero"/><g clip-path="url(#81f777a28b)"><path fill="#d74b55" d="M 243.882812 283.605469 L 131.328125 283.605469 C 129.5 283.605469 128.019531 282.125 128.019531 280.296875 L 128.019531 273.675781 L 247.191406 273.675781 L 247.191406 280.296875 C 247.191406 282.125 245.710938 283.605469 243.882812 283.605469 Z M 243.882812 283.605469 " fill-opacity="1" fill-rule="nonzero"/></g><path fill="#ff5a64" d="M 194.226562 104.847656 L 180.984375 104.847656 C 179.164062 104.847656 177.675781 103.355469 177.675781 101.535156 C 177.675781 99.714844 179.164062 98.226562 180.984375 98.226562 L 194.226562 98.226562 C 196.046875 98.226562 197.535156 99.714844 197.535156 101.535156 C 197.535156 103.355469 196.046875 104.847656 194.226562 104.847656 Z M 194.226562 104.847656 " fill-opacity="1" fill-rule="nonzero"/></svg>