<svg xmlns="http://www.w3.org/2000/svg" xmlns:xlink="http://www.w3.org/1999/xlink" width="500" zoomAndPan="magnify" viewBox="0 0 375 374.999991" height="500" preserveAspectRatio="xMidYMid meet" version="1.0"><defs><clipPath id="eea9ff826b"><path d="M 45.335938 59.699219 L 329.664062 59.699219 L 329.664062 315.300781 L 45.335938 315.300781 Z M 45.335938 59.699219 " clip-rule="nonzero"/></clipPath><clipPath id="85620f6f36"><path d="M 62.585938 59.699219 L 312.414062 59.699219 C 316.988281 59.699219 321.378906 61.519531 324.613281 64.753906 C 327.847656 67.988281 329.664062 72.375 329.664062 76.949219 L 329.664062 298.050781 C 329.664062 302.625 327.847656 307.011719 324.613281 310.246094 C 321.378906 313.480469 316.988281 315.300781 312.414062 315.300781 L 62.585938 315.300781 C 58.011719 315.300781 53.621094 313.480469 50.386719 310.246094 C 47.152344 307.011719 45.335938 302.625 45.335938 298.050781 L 45.335938 76.949219 C 45.335938 72.375 47.152344 67.988281 50.386719 64.753906 C 53.621094 61.519531 58.011719 59.699219 62.585938 59.699219 " clip-rule="nonzero"/></clipPath><clipPath id="56d8daaefa"><path d="M 133 97 L 242 97 L 242 292.058594 L 133 292.058594 Z M 133 97 " clip-rule="nonzero"/></clipPath><clipPath id="b5537eaa9c"><path d="M 183 187 L 192 187 L 192 292.058594 L 183 292.058594 Z M 183 187 " clip-rule="nonzero"/></clipPath><clipPath id="e37ca4004a"><path d="M 153 82.808594 L 222 82.808594 L 222 238 L 153 238 Z M 153 82.808594 " clip-rule="nonzero"/></clipPath><clipPath id="ef17bd2436"><path d="M 174 82.808594 L 201 82.808594 L 201 177 L 174 177 Z M 174 82.808594 " clip-rule="nonzero"/></clipPath></defs><rect x="-37.5" width="450" fill="#ffffff" y="-37.499999" height="449.999989" fill-opacity="1"/><rect x="-37.5" width="450" fill="#ffffff" y="-37.499999" height="449.999989" fill-opacity="1"/><rect x="-37.5" width="450" fill="#63e1b4" y="-37.499999" height="449.999989" fill-opacity="1"/><g clip-path="url(#eea9ff826b)"><g clip-path="url(#85620f6f36)"><path fill="#ffffff" d="M 45.335938 59.699219 L 329.664062 59.699219 L 329.664062 315.300781 L 45.335938 315.300781 Z M 45.335938 59.699219 " fill-opacity="1" fill-rule="nonzero"/></g></g><g clip-path="url(#56d8daaefa)"><path fill="#ff5a64" d="M 231.160156 105.789062 C 230.898438 102.8125 228.828125 100.304688 225.957031 99.484375 L 216.296875 97.238281 L 158.570312 97.238281 L 148.910156 99.484375 C 146.035156 100.304688 143.964844 102.8125 143.703125 105.789062 L 133.53125 221.066406 C 133.402344 222.539062 134.1875 223.945312 135.511719 224.609375 L 147.800781 230.753906 C 145.195312 249.210938 142.492188 270.226562 140.871094 288.152344 C 140.679688 290.261719 142.355469 292.058594 144.472656 292.058594 L 230.394531 292.058594 C 232.511719 292.058594 234.183594 290.261719 233.996094 288.152344 C 232.375 270.226562 229.671875 249.210938 227.0625 230.753906 L 239.351562 224.609375 C 240.675781 223.945312 241.464844 222.539062 241.332031 221.066406 Z M 219.902344 183.832031 L 219.902344 183.824219 C 219.902344 183.824219 219.902344 183.8125 219.902344 183.8125 Z M 219.902344 183.832031 " fill-opacity="1" fill-rule="nonzero"/></g><path fill="#d74b55" d="M 147.800781 230.765625 C 150.273438 213.269531 152.660156 198.074219 153.957031 189.996094 C 154.632812 185.785156 154.773438 181.558594 154.375 177.316406 C 153.101562 163.726562 149.808594 131.21875 145.011719 102.355469 C 144.3125 103.359375 143.816406 104.511719 143.703125 105.789062 L 133.53125 221.0625 C 133.402344 222.539062 134.1875 223.945312 135.511719 224.609375 L 147.800781 230.753906 C 147.800781 230.757812 147.800781 230.761719 147.800781 230.765625 Z M 147.800781 230.765625 " fill-opacity="1" fill-rule="nonzero"/><path fill="#d74b55" d="M 231.160156 105.789062 C 231.050781 104.511719 230.550781 103.359375 229.855469 102.355469 C 225.054688 131.21875 221.765625 163.730469 220.492188 177.316406 C 220.09375 181.558594 220.230469 185.785156 220.910156 189.996094 C 222.207031 198.074219 224.59375 213.269531 227.066406 230.765625 C 227.066406 230.761719 227.066406 230.757812 227.0625 230.753906 L 239.351562 224.609375 C 240.679688 223.945312 241.464844 222.539062 241.332031 221.0625 Z M 231.160156 105.789062 " fill-opacity="1" fill-rule="nonzero"/><g clip-path="url(#b5537eaa9c)"><path fill="#d74b55" d="M 183.824219 187.433594 L 191.039062 187.433594 L 191.039062 292.058594 L 183.824219 292.058594 Z M 183.824219 187.433594 " fill-opacity="1" fill-rule="nonzero"/></g><path fill="#ebc9a0" d="M 198.257812 203.667969 C 198.257812 204.023438 198.222656 204.375 198.152344 204.722656 C 198.082031 205.070312 197.980469 205.410156 197.84375 205.738281 C 197.707031 206.066406 197.542969 206.378906 197.34375 206.675781 C 197.144531 206.96875 196.921875 207.242188 196.671875 207.496094 C 196.417969 207.746094 196.144531 207.96875 195.851562 208.167969 C 195.554688 208.363281 195.242188 208.53125 194.914062 208.667969 C 194.585938 208.804688 194.25 208.90625 193.898438 208.976562 C 193.550781 209.042969 193.199219 209.078125 192.84375 209.078125 C 192.488281 209.078125 192.136719 209.042969 191.789062 208.976562 C 191.441406 208.90625 191.101562 208.804688 190.773438 208.667969 C 190.445312 208.53125 190.132812 208.363281 189.839844 208.167969 C 189.542969 207.96875 189.269531 207.746094 189.019531 207.496094 C 188.765625 207.242188 188.542969 206.96875 188.34375 206.675781 C 188.148438 206.378906 187.980469 206.066406 187.84375 205.738281 C 187.707031 205.410156 187.605469 205.070312 187.535156 204.722656 C 187.46875 204.375 187.433594 204.023438 187.433594 203.667969 C 187.433594 203.3125 187.46875 202.960938 187.535156 202.613281 C 187.605469 202.261719 187.707031 201.925781 187.84375 201.597656 C 187.980469 201.269531 188.148438 200.957031 188.34375 200.660156 C 188.542969 200.367188 188.765625 200.09375 189.019531 199.839844 C 189.269531 199.589844 189.542969 199.367188 189.839844 199.167969 C 190.132812 198.972656 190.445312 198.804688 190.773438 198.667969 C 191.101562 198.53125 191.441406 198.429688 191.789062 198.359375 C 192.136719 198.289062 192.488281 198.257812 192.84375 198.257812 C 193.199219 198.257812 193.550781 198.289062 193.898438 198.359375 C 194.25 198.429688 194.585938 198.53125 194.914062 198.667969 C 195.242188 198.804688 195.554688 198.972656 195.851562 199.167969 C 196.144531 199.367188 196.417969 199.589844 196.671875 199.839844 C 196.921875 200.09375 197.144531 200.367188 197.34375 200.660156 C 197.542969 200.957031 197.707031 201.269531 197.84375 201.597656 C 197.980469 201.925781 198.082031 202.261719 198.152344 202.613281 C 198.222656 202.960938 198.257812 203.3125 198.257812 203.667969 Z M 198.257812 203.667969 " fill-opacity="1" fill-rule="nonzero"/><path fill="#ebc9a0" d="M 198.257812 225.316406 C 198.257812 225.667969 198.222656 226.023438 198.152344 226.371094 C 198.082031 226.71875 197.980469 227.058594 197.84375 227.386719 C 197.707031 227.714844 197.542969 228.027344 197.34375 228.320312 C 197.144531 228.617188 196.921875 228.890625 196.671875 229.140625 C 196.417969 229.390625 196.144531 229.617188 195.851562 229.8125 C 195.554688 230.011719 195.242188 230.179688 194.914062 230.3125 C 194.585938 230.449219 194.25 230.550781 193.898438 230.621094 C 193.550781 230.691406 193.199219 230.726562 192.84375 230.726562 C 192.488281 230.726562 192.136719 230.691406 191.789062 230.621094 C 191.441406 230.550781 191.101562 230.449219 190.773438 230.3125 C 190.445312 230.179688 190.132812 230.011719 189.839844 229.8125 C 189.542969 229.617188 189.269531 229.390625 189.019531 229.140625 C 188.765625 228.890625 188.542969 228.617188 188.34375 228.320312 C 188.148438 228.027344 187.980469 227.714844 187.84375 227.386719 C 187.707031 227.058594 187.605469 226.71875 187.535156 226.371094 C 187.46875 226.023438 187.433594 225.667969 187.433594 225.316406 C 187.433594 224.960938 187.46875 224.605469 187.535156 224.257812 C 187.605469 223.910156 187.707031 223.570312 187.84375 223.242188 C 187.980469 222.914062 188.148438 222.601562 188.34375 222.308594 C 188.542969 222.011719 188.765625 221.738281 189.019531 221.488281 C 189.269531 221.238281 189.542969 221.011719 189.839844 220.816406 C 190.132812 220.617188 190.445312 220.449219 190.773438 220.316406 C 191.101562 220.179688 191.441406 220.078125 191.789062 220.007812 C 192.136719 219.9375 192.488281 219.902344 192.84375 219.902344 C 193.199219 219.902344 193.550781 219.9375 193.898438 220.007812 C 194.25 220.078125 194.585938 220.179688 194.914062 220.316406 C 195.242188 220.449219 195.554688 220.617188 195.851562 220.816406 C 196.144531 221.011719 196.417969 221.238281 196.671875 221.488281 C 196.921875 221.738281 197.144531 222.011719 197.34375 222.308594 C 197.542969 222.601562 197.707031 222.914062 197.84375 223.242188 C 197.980469 223.570312 198.082031 223.910156 198.152344 224.257812 C 198.222656 224.605469 198.257812 224.960938 198.257812 225.316406 Z M 198.257812 225.316406 " fill-opacity="1" fill-rule="nonzero"/><g clip-path="url(#e37ca4004a)"><path fill="#ebc9a0" d="M 220.90625 189.996094 C 220.230469 185.785156 220.09375 181.5625 220.492188 177.316406 C 220.511719 177.097656 220.535156 176.835938 220.558594 176.609375 L 190.46875 176.609375 L 215.695312 116.699219 C 216.070312 115.8125 215.972656 114.796875 215.4375 113.992188 L 210.585938 106.714844 C 209.753906 105.46875 210.089844 103.777344 211.339844 102.945312 L 217.613281 98.761719 C 218.949219 97.875 219.296875 96.082031 218.394531 94.757812 C 215.59375 90.628906 208.878906 82.808594 198.257812 82.808594 L 176.609375 82.808594 C 165.984375 82.808594 159.273438 90.628906 156.46875 94.757812 C 155.570312 96.082031 155.917969 97.875 157.25 98.761719 L 163.523438 102.945312 C 164.773438 103.777344 165.113281 105.46875 164.277344 106.714844 L 159.425781 113.992188 C 158.890625 114.796875 158.796875 115.8125 159.167969 116.699219 L 184.394531 176.609375 L 154.308594 176.609375 C 154.328125 176.835938 154.355469 177.097656 154.375 177.316406 C 154.773438 181.5625 154.632812 185.789062 153.957031 190 C 153.90625 190.3125 153.84375 190.707031 153.789062 191.042969 L 165.785156 191.042969 L 165.785156 234.335938 C 165.785156 236.328125 167.402344 237.941406 169.394531 237.941406 L 173.003906 237.941406 C 174.996094 237.941406 176.609375 236.328125 176.609375 234.335938 L 176.609375 191.042969 L 221.074219 191.042969 C 221.019531 190.707031 220.957031 190.3125 220.90625 189.996094 Z M 220.90625 189.996094 " fill-opacity="1" fill-rule="nonzero"/></g><path fill="#dcb991" d="M 165.785156 191.039062 L 176.609375 191.039062 L 176.609375 198.257812 L 165.785156 198.257812 Z M 165.785156 191.039062 " fill-opacity="1" fill-rule="nonzero"/><g clip-path="url(#ef17bd2436)"><path fill="#dcb991" d="M 188.609375 175.589844 L 200.097656 95.160156 C 201.03125 88.640625 195.972656 82.808594 189.386719 82.808594 L 185.480469 82.808594 C 178.894531 82.808594 173.835938 88.640625 174.765625 95.160156 L 186.257812 175.589844 C 186.339844 176.175781 186.839844 176.609375 187.433594 176.609375 C 188.023438 176.609375 188.527344 176.175781 188.609375 175.589844 Z M 188.609375 175.589844 " fill-opacity="1" fill-rule="nonzero"/></g></svg>