<svg xmlns="http://www.w3.org/2000/svg" xmlns:xlink="http://www.w3.org/1999/xlink" width="500" zoomAndPan="magnify" viewBox="0 0 375 374.999991" height="500" preserveAspectRatio="xMidYMid meet" version="1.0"><defs><clipPath id="c79ecd727a"><path d="M 45.335938 59.699219 L 329.664062 59.699219 L 329.664062 315.300781 L 45.335938 315.300781 Z M 45.335938 59.699219 " clip-rule="nonzero"/></clipPath><clipPath id="6a5b09867e"><path d="M 62.585938 59.699219 L 312.414062 59.699219 C 316.988281 59.699219 321.378906 61.519531 324.613281 64.753906 C 327.847656 67.988281 329.664062 72.375 329.664062 76.949219 L 329.664062 298.050781 C 329.664062 302.625 327.847656 307.011719 324.613281 310.246094 C 321.378906 313.480469 316.988281 315.300781 312.414062 315.300781 L 62.585938 315.300781 C 58.011719 315.300781 53.621094 313.480469 50.386719 310.246094 C 47.152344 307.011719 45.335938 302.625 45.335938 298.050781 L 45.335938 76.949219 C 45.335938 72.375 47.152344 67.988281 50.386719 64.753906 C 53.621094 61.519531 58.011719 59.699219 62.585938 59.699219 " clip-rule="nonzero"/></clipPath><clipPath id="daae91d098"><path d="M 71 173 L 99 173 L 99 191 L 71 191 Z M 71 173 " clip-rule="nonzero"/></clipPath><clipPath id="3becf4ee5e"><path d="M 236.640625 47.785156 L 327.121094 236.460938 L 138.445312 326.941406 L 47.964844 138.265625 Z M 236.640625 47.785156 " clip-rule="nonzero"/></clipPath><clipPath id="c90e233641"><path d="M 236.640625 47.785156 L 327.121094 236.460938 L 138.445312 326.941406 L 47.964844 138.265625 Z M 236.640625 47.785156 " clip-rule="nonzero"/></clipPath><clipPath id="4704482748"><path d="M 236.640625 47.785156 L 327.121094 236.460938 L 138.445312 326.941406 L 47.964844 138.265625 Z M 236.640625 47.785156 " clip-rule="nonzero"/></clipPath><clipPath id="5869726faf"><path d="M 77 185 L 105 185 L 105 204 L 77 204 Z M 77 185 " clip-rule="nonzero"/></clipPath><clipPath id="f2bae06c18"><path d="M 236.640625 47.785156 L 327.121094 236.460938 L 138.445312 326.941406 L 47.964844 138.265625 Z M 236.640625 47.785156 " clip-rule="nonzero"/></clipPath><clipPath id="41faf6cb7a"><path d="M 236.640625 47.785156 L 327.121094 236.460938 L 138.445312 326.941406 L 47.964844 138.265625 Z M 236.640625 47.785156 " clip-rule="nonzero"/></clipPath><clipPath id="9ef7efb3f0"><path d="M 236.640625 47.785156 L 327.121094 236.460938 L 138.445312 326.941406 L 47.964844 138.265625 Z M 236.640625 47.785156 " clip-rule="nonzero"/></clipPath><clipPath id="0c1778c26b"><path d="M 89 211 L 117 211 L 117 229 L 89 229 Z M 89 211 " clip-rule="nonzero"/></clipPath><clipPath id="1019e975e0"><path d="M 236.640625 47.785156 L 327.121094 236.460938 L 138.445312 326.941406 L 47.964844 138.265625 Z M 236.640625 47.785156 " clip-rule="nonzero"/></clipPath><clipPath id="c7ecaab14e"><path d="M 236.640625 47.785156 L 327.121094 236.460938 L 138.445312 326.941406 L 47.964844 138.265625 Z M 236.640625 47.785156 " clip-rule="nonzero"/></clipPath><clipPath id="1a1751ad6f"><path d="M 236.640625 47.785156 L 327.121094 236.460938 L 138.445312 326.941406 L 47.964844 138.265625 Z M 236.640625 47.785156 " clip-rule="nonzero"/></clipPath><clipPath id="3ab886d5a4"><path d="M 95 223 L 123 223 L 123 241 L 95 241 Z M 95 223 " clip-rule="nonzero"/></clipPath><clipPath id="ed4496d51c"><path d="M 236.640625 47.785156 L 327.121094 236.460938 L 138.445312 326.941406 L 47.964844 138.265625 Z M 236.640625 47.785156 " clip-rule="nonzero"/></clipPath><clipPath id="fa2ae20fcf"><path d="M 236.640625 47.785156 L 327.121094 236.460938 L 138.445312 326.941406 L 47.964844 138.265625 Z M 236.640625 47.785156 " clip-rule="nonzero"/></clipPath><clipPath id="7d02562cb9"><path d="M 236.640625 47.785156 L 327.121094 236.460938 L 138.445312 326.941406 L 47.964844 138.265625 Z M 236.640625 47.785156 " clip-rule="nonzero"/></clipPath><clipPath id="7e26dbebed"><path d="M 101 236 L 129 236 L 129 254 L 101 254 Z M 101 236 " clip-rule="nonzero"/></clipPath><clipPath id="bb3f388ff6"><path d="M 236.640625 47.785156 L 327.121094 236.460938 L 138.445312 326.941406 L 47.964844 138.265625 Z M 236.640625 47.785156 " clip-rule="nonzero"/></clipPath><clipPath id="235952732e"><path d="M 236.640625 47.785156 L 327.121094 236.460938 L 138.445312 326.941406 L 47.964844 138.265625 Z M 236.640625 47.785156 " clip-rule="nonzero"/></clipPath><clipPath id="263f38a1a9"><path d="M 236.640625 47.785156 L 327.121094 236.460938 L 138.445312 326.941406 L 47.964844 138.265625 Z M 236.640625 47.785156 " clip-rule="nonzero"/></clipPath><clipPath id="ef942aba4e"><path d="M 83 198 L 111 198 L 111 216 L 83 216 Z M 83 198 " clip-rule="nonzero"/></clipPath><clipPath id="90ef2dd2e3"><path d="M 236.640625 47.785156 L 327.121094 236.460938 L 138.445312 326.941406 L 47.964844 138.265625 Z M 236.640625 47.785156 " clip-rule="nonzero"/></clipPath><clipPath id="d3016c0126"><path d="M 236.640625 47.785156 L 327.121094 236.460938 L 138.445312 326.941406 L 47.964844 138.265625 Z M 236.640625 47.785156 " clip-rule="nonzero"/></clipPath><clipPath id="3dda65c2d9"><path d="M 236.640625 47.785156 L 327.121094 236.460938 L 138.445312 326.941406 L 47.964844 138.265625 Z M 236.640625 47.785156 " clip-rule="nonzero"/></clipPath><clipPath id="42d0f29ef8"><path d="M 93 121 L 243 121 L 243 243 L 93 243 Z M 93 121 " clip-rule="nonzero"/></clipPath><clipPath id="5f7bb9aa88"><path d="M 236.640625 47.785156 L 327.121094 236.460938 L 138.445312 326.941406 L 47.964844 138.265625 Z M 236.640625 47.785156 " clip-rule="nonzero"/></clipPath><clipPath id="40a26451e6"><path d="M 236.640625 47.785156 L 327.121094 236.460938 L 138.445312 326.941406 L 47.964844 138.265625 Z M 236.640625 47.785156 " clip-rule="nonzero"/></clipPath><clipPath id="696fabbaef"><path d="M 236.640625 47.785156 L 327.121094 236.460938 L 138.445312 326.941406 L 47.964844 138.265625 Z M 236.640625 47.785156 " clip-rule="nonzero"/></clipPath><clipPath id="9868df5168"><path d="M 93 121 L 215 121 L 215 188 L 93 188 Z M 93 121 " clip-rule="nonzero"/></clipPath><clipPath id="0162c02d48"><path d="M 236.640625 47.785156 L 327.121094 236.460938 L 138.445312 326.941406 L 47.964844 138.265625 Z M 236.640625 47.785156 " clip-rule="nonzero"/></clipPath><clipPath id="66044909a9"><path d="M 236.640625 47.785156 L 327.121094 236.460938 L 138.445312 326.941406 L 47.964844 138.265625 Z M 236.640625 47.785156 " clip-rule="nonzero"/></clipPath><clipPath id="2ee2ec675d"><path d="M 236.640625 47.785156 L 327.121094 236.460938 L 138.445312 326.941406 L 47.964844 138.265625 Z M 236.640625 47.785156 " clip-rule="nonzero"/></clipPath><clipPath id="c95223de6c"><path d="M 119 121 L 215 121 L 215 177 L 119 177 Z M 119 121 " clip-rule="nonzero"/></clipPath><clipPath id="a8d4168342"><path d="M 236.640625 47.785156 L 327.121094 236.460938 L 138.445312 326.941406 L 47.964844 138.265625 Z M 236.640625 47.785156 " clip-rule="nonzero"/></clipPath><clipPath id="757ff1d94a"><path d="M 236.640625 47.785156 L 327.121094 236.460938 L 138.445312 326.941406 L 47.964844 138.265625 Z M 236.640625 47.785156 " clip-rule="nonzero"/></clipPath><clipPath id="6a46194fd8"><path d="M 236.640625 47.785156 L 327.121094 236.460938 L 138.445312 326.941406 L 47.964844 138.265625 Z M 236.640625 47.785156 " clip-rule="nonzero"/></clipPath><clipPath id="abef636ef8"><path d="M 120 131 L 243 131 L 243 234 L 120 234 Z M 120 131 " clip-rule="nonzero"/></clipPath><clipPath id="cf9f41ef24"><path d="M 236.640625 47.785156 L 327.121094 236.460938 L 138.445312 326.941406 L 47.964844 138.265625 Z M 236.640625 47.785156 " clip-rule="nonzero"/></clipPath><clipPath id="c4cd19f865"><path d="M 236.640625 47.785156 L 327.121094 236.460938 L 138.445312 326.941406 L 47.964844 138.265625 Z M 236.640625 47.785156 " clip-rule="nonzero"/></clipPath><clipPath id="6821a842f7"><path d="M 236.640625 47.785156 L 327.121094 236.460938 L 138.445312 326.941406 L 47.964844 138.265625 Z M 236.640625 47.785156 " clip-rule="nonzero"/></clipPath><clipPath id="2a0c8a756c"><path d="M 129 125 L 222 125 L 222 185 L 129 185 Z M 129 125 " clip-rule="nonzero"/></clipPath><clipPath id="bff653ef6f"><path d="M 236.640625 47.785156 L 327.121094 236.460938 L 138.445312 326.941406 L 47.964844 138.265625 Z M 236.640625 47.785156 " clip-rule="nonzero"/></clipPath><clipPath id="1a0203aab8"><path d="M 236.640625 47.785156 L 327.121094 236.460938 L 138.445312 326.941406 L 47.964844 138.265625 Z M 236.640625 47.785156 " clip-rule="nonzero"/></clipPath><clipPath id="7226d6d211"><path d="M 236.640625 47.785156 L 327.121094 236.460938 L 138.445312 326.941406 L 47.964844 138.265625 Z M 236.640625 47.785156 " clip-rule="nonzero"/></clipPath><clipPath id="902ac7875b"><path d="M 119 175 L 243 175 L 243 243 L 119 243 Z M 119 175 " clip-rule="nonzero"/></clipPath><clipPath id="d35d28596b"><path d="M 236.640625 47.785156 L 327.121094 236.460938 L 138.445312 326.941406 L 47.964844 138.265625 Z M 236.640625 47.785156 " clip-rule="nonzero"/></clipPath><clipPath id="5e831a9038"><path d="M 236.640625 47.785156 L 327.121094 236.460938 L 138.445312 326.941406 L 47.964844 138.265625 Z M 236.640625 47.785156 " clip-rule="nonzero"/></clipPath><clipPath id="12a0848866"><path d="M 236.640625 47.785156 L 327.121094 236.460938 L 138.445312 326.941406 L 47.964844 138.265625 Z M 236.640625 47.785156 " clip-rule="nonzero"/></clipPath><clipPath id="5b5910028d"><path d="M 141 175 L 243 175 L 243 234 L 141 234 Z M 141 175 " clip-rule="nonzero"/></clipPath><clipPath id="47f61a7095"><path d="M 236.640625 47.785156 L 327.121094 236.460938 L 138.445312 326.941406 L 47.964844 138.265625 Z M 236.640625 47.785156 " clip-rule="nonzero"/></clipPath><clipPath id="e2eae3e02e"><path d="M 236.640625 47.785156 L 327.121094 236.460938 L 138.445312 326.941406 L 47.964844 138.265625 Z M 236.640625 47.785156 " clip-rule="nonzero"/></clipPath><clipPath id="464c544938"><path d="M 236.640625 47.785156 L 327.121094 236.460938 L 138.445312 326.941406 L 47.964844 138.265625 Z M 236.640625 47.785156 " clip-rule="nonzero"/></clipPath><clipPath id="b2c6c58e0f"><path d="M 246 121 L 274 121 L 274 139 L 246 139 Z M 246 121 " clip-rule="nonzero"/></clipPath><clipPath id="818e6ed329"><path d="M 236.640625 47.785156 L 327.121094 236.460938 L 138.445312 326.941406 L 47.964844 138.265625 Z M 236.640625 47.785156 " clip-rule="nonzero"/></clipPath><clipPath id="6b2fe772b8"><path d="M 236.640625 47.785156 L 327.121094 236.460938 L 138.445312 326.941406 L 47.964844 138.265625 Z M 236.640625 47.785156 " clip-rule="nonzero"/></clipPath><clipPath id="7a76aeae30"><path d="M 236.640625 47.785156 L 327.121094 236.460938 L 138.445312 326.941406 L 47.964844 138.265625 Z M 236.640625 47.785156 " clip-rule="nonzero"/></clipPath><clipPath id="55432da7da"><path d="M 252 133 L 280 133 L 280 152 L 252 152 Z M 252 133 " clip-rule="nonzero"/></clipPath><clipPath id="ed996ca4dc"><path d="M 236.640625 47.785156 L 327.121094 236.460938 L 138.445312 326.941406 L 47.964844 138.265625 Z M 236.640625 47.785156 " clip-rule="nonzero"/></clipPath><clipPath id="de49f8b56e"><path d="M 236.640625 47.785156 L 327.121094 236.460938 L 138.445312 326.941406 L 47.964844 138.265625 Z M 236.640625 47.785156 " clip-rule="nonzero"/></clipPath><clipPath id="48e45bcf7f"><path d="M 236.640625 47.785156 L 327.121094 236.460938 L 138.445312 326.941406 L 47.964844 138.265625 Z M 236.640625 47.785156 " clip-rule="nonzero"/></clipPath><clipPath id="1493709f95"><path d="M 264 159 L 292 159 L 292 177 L 264 177 Z M 264 159 " clip-rule="nonzero"/></clipPath><clipPath id="f2c5b4ac9f"><path d="M 236.640625 47.785156 L 327.121094 236.460938 L 138.445312 326.941406 L 47.964844 138.265625 Z M 236.640625 47.785156 " clip-rule="nonzero"/></clipPath><clipPath id="efb9c2ff7e"><path d="M 236.640625 47.785156 L 327.121094 236.460938 L 138.445312 326.941406 L 47.964844 138.265625 Z M 236.640625 47.785156 " clip-rule="nonzero"/></clipPath><clipPath id="86ebff297a"><path d="M 236.640625 47.785156 L 327.121094 236.460938 L 138.445312 326.941406 L 47.964844 138.265625 Z M 236.640625 47.785156 " clip-rule="nonzero"/></clipPath><clipPath id="f24042fa60"><path d="M 270 171 L 298 171 L 298 189 L 270 189 Z M 270 171 " clip-rule="nonzero"/></clipPath><clipPath id="d026614ad0"><path d="M 236.640625 47.785156 L 327.121094 236.460938 L 138.445312 326.941406 L 47.964844 138.265625 Z M 236.640625 47.785156 " clip-rule="nonzero"/></clipPath><clipPath id="b23848c1cb"><path d="M 236.640625 47.785156 L 327.121094 236.460938 L 138.445312 326.941406 L 47.964844 138.265625 Z M 236.640625 47.785156 " clip-rule="nonzero"/></clipPath><clipPath id="b09743e5f8"><path d="M 236.640625 47.785156 L 327.121094 236.460938 L 138.445312 326.941406 L 47.964844 138.265625 Z M 236.640625 47.785156 " clip-rule="nonzero"/></clipPath><clipPath id="4ce391bc1d"><path d="M 276 184 L 304 184 L 304 202 L 276 202 Z M 276 184 " clip-rule="nonzero"/></clipPath><clipPath id="d0b076e097"><path d="M 236.640625 47.785156 L 327.121094 236.460938 L 138.445312 326.941406 L 47.964844 138.265625 Z M 236.640625 47.785156 " clip-rule="nonzero"/></clipPath><clipPath id="e2a1c3c5d0"><path d="M 236.640625 47.785156 L 327.121094 236.460938 L 138.445312 326.941406 L 47.964844 138.265625 Z M 236.640625 47.785156 " clip-rule="nonzero"/></clipPath><clipPath id="8a2be0dbca"><path d="M 236.640625 47.785156 L 327.121094 236.460938 L 138.445312 326.941406 L 47.964844 138.265625 Z M 236.640625 47.785156 " clip-rule="nonzero"/></clipPath><clipPath id="52c44ff759"><path d="M 258 146 L 286 146 L 286 164 L 258 164 Z M 258 146 " clip-rule="nonzero"/></clipPath><clipPath id="fff938d386"><path d="M 236.640625 47.785156 L 327.121094 236.460938 L 138.445312 326.941406 L 47.964844 138.265625 Z M 236.640625 47.785156 " clip-rule="nonzero"/></clipPath><clipPath id="3ae064bc2f"><path d="M 236.640625 47.785156 L 327.121094 236.460938 L 138.445312 326.941406 L 47.964844 138.265625 Z M 236.640625 47.785156 " clip-rule="nonzero"/></clipPath><clipPath id="4987ce7b86"><path d="M 236.640625 47.785156 L 327.121094 236.460938 L 138.445312 326.941406 L 47.964844 138.265625 Z M 236.640625 47.785156 " clip-rule="nonzero"/></clipPath><clipPath id="832d8516b4"><path d="M 129 131 L 282 131 L 282 254 L 129 254 Z M 129 131 " clip-rule="nonzero"/></clipPath><clipPath id="17e45ca397"><path d="M 236.640625 47.785156 L 327.121094 236.460938 L 138.445312 326.941406 L 47.964844 138.265625 Z M 236.640625 47.785156 " clip-rule="nonzero"/></clipPath><clipPath id="da0b9c8203"><path d="M 236.640625 47.785156 L 327.121094 236.460938 L 138.445312 326.941406 L 47.964844 138.265625 Z M 236.640625 47.785156 " clip-rule="nonzero"/></clipPath><clipPath id="27801ff956"><path d="M 236.640625 47.785156 L 327.121094 236.460938 L 138.445312 326.941406 L 47.964844 138.265625 Z M 236.640625 47.785156 " clip-rule="nonzero"/></clipPath><clipPath id="ad91483ac8"><path d="M 157 187 L 282 187 L 282 254 L 157 254 Z M 157 187 " clip-rule="nonzero"/></clipPath><clipPath id="ef722eccb4"><path d="M 236.640625 47.785156 L 327.121094 236.460938 L 138.445312 326.941406 L 47.964844 138.265625 Z M 236.640625 47.785156 " clip-rule="nonzero"/></clipPath><clipPath id="2fe1b2c382"><path d="M 236.640625 47.785156 L 327.121094 236.460938 L 138.445312 326.941406 L 47.964844 138.265625 Z M 236.640625 47.785156 " clip-rule="nonzero"/></clipPath><clipPath id="73297a2324"><path d="M 236.640625 47.785156 L 327.121094 236.460938 L 138.445312 326.941406 L 47.964844 138.265625 Z M 236.640625 47.785156 " clip-rule="nonzero"/></clipPath><clipPath id="80602f9f45"><path d="M 129 131 L 256 131 L 256 197 L 129 197 Z M 129 131 " clip-rule="nonzero"/></clipPath><clipPath id="920c4eabd0"><path d="M 236.640625 47.785156 L 327.121094 236.460938 L 138.445312 326.941406 L 47.964844 138.265625 Z M 236.640625 47.785156 " clip-rule="nonzero"/></clipPath><clipPath id="0b9812f800"><path d="M 236.640625 47.785156 L 327.121094 236.460938 L 138.445312 326.941406 L 47.964844 138.265625 Z M 236.640625 47.785156 " clip-rule="nonzero"/></clipPath><clipPath id="ddada9eae3"><path d="M 236.640625 47.785156 L 327.121094 236.460938 L 138.445312 326.941406 L 47.964844 138.265625 Z M 236.640625 47.785156 " clip-rule="nonzero"/></clipPath></defs><rect x="-37.5" width="450" fill="#ffffff" y="-37.499999" height="449.999989" fill-opacity="1"/><rect x="-37.5" width="450" fill="#ffffff" y="-37.499999" height="449.999989" fill-opacity="1"/><rect x="-37.5" width="450" fill="#63e1b4" y="-37.499999" height="449.999989" fill-opacity="1"/><g clip-path="url(#c79ecd727a)"><g clip-path="url(#6a5b09867e)"><path fill="#ffffff" d="M 45.335938 59.699219 L 329.664062 59.699219 L 329.664062 315.300781 L 45.335938 315.300781 Z M 45.335938 59.699219 " fill-opacity="1" fill-rule="nonzero"/></g></g><g clip-path="url(#daae91d098)"><g clip-path="url(#3becf4ee5e)"><g clip-path="url(#c90e233641)"><g clip-path="url(#4704482748)"><path fill="#dcb991" d="M 95.742188 173.371094 L 73.730469 183.925781 C 71.992188 184.757812 71.257812 186.839844 72.09375 188.578125 C 72.925781 190.316406 75.007812 191.046875 76.746094 190.214844 L 98.757812 179.660156 Z M 95.742188 173.371094 " fill-opacity="1" fill-rule="nonzero"/></g></g></g></g><g clip-path="url(#5869726faf)"><g clip-path="url(#f2bae06c18)"><g clip-path="url(#41faf6cb7a)"><g clip-path="url(#9ef7efb3f0)"><path fill="#dcb991" d="M 101.773438 185.949219 L 79.761719 196.503906 C 78.023438 197.335938 77.289062 199.417969 78.125 201.15625 C 78.957031 202.894531 81.039062 203.625 82.777344 202.792969 L 104.789062 192.238281 Z M 101.773438 185.949219 " fill-opacity="1" fill-rule="nonzero"/></g></g></g></g><g clip-path="url(#0c1778c26b)"><g clip-path="url(#1019e975e0)"><g clip-path="url(#c7ecaab14e)"><g clip-path="url(#1a1751ad6f)"><path fill="#dcb991" d="M 113.835938 211.105469 L 91.824219 221.660156 C 90.085938 222.496094 89.355469 224.574219 90.1875 226.3125 C 91.023438 228.050781 93.101562 228.785156 94.839844 227.949219 L 116.851562 217.394531 Z M 113.835938 211.105469 " fill-opacity="1" fill-rule="nonzero"/></g></g></g></g><g clip-path="url(#3ab886d5a4)"><g clip-path="url(#ed4496d51c)"><g clip-path="url(#fa2ae20fcf)"><g clip-path="url(#7d02562cb9)"><path fill="#dcb991" d="M 119.867188 223.683594 L 97.855469 234.238281 C 96.117188 235.074219 95.386719 237.152344 96.21875 238.890625 C 97.054688 240.628906 99.132812 241.363281 100.871094 240.527344 L 122.886719 229.972656 Z M 119.867188 223.683594 " fill-opacity="1" fill-rule="nonzero"/></g></g></g></g><g clip-path="url(#7e26dbebed)"><g clip-path="url(#bb3f388ff6)"><g clip-path="url(#235952732e)"><g clip-path="url(#263f38a1a9)"><path fill="#dcb991" d="M 125.902344 236.261719 L 103.890625 246.816406 C 102.152344 247.652344 101.417969 249.734375 102.253906 251.46875 C 103.085938 253.207031 105.167969 253.941406 106.90625 253.105469 L 128.917969 242.550781 Z M 125.902344 236.261719 " fill-opacity="1" fill-rule="nonzero"/></g></g></g></g><g clip-path="url(#ef942aba4e)"><g clip-path="url(#90ef2dd2e3)"><g clip-path="url(#d3016c0126)"><g clip-path="url(#3dda65c2d9)"><path fill="#dcb991" d="M 107.804688 198.527344 L 85.792969 209.082031 C 84.054688 209.917969 83.324219 211.996094 84.15625 213.734375 C 84.988281 215.472656 87.070312 216.207031 88.808594 215.371094 L 110.820312 204.816406 Z M 107.804688 198.527344 " fill-opacity="1" fill-rule="nonzero"/></g></g></g></g><g clip-path="url(#42d0f29ef8)"><g clip-path="url(#5f7bb9aa88)"><g clip-path="url(#40a26451e6)"><g clip-path="url(#696fabbaef)"><path fill="#ebc9a0" d="M 221.011719 144.238281 L 211.960938 125.371094 C 210.296875 121.898438 206.128906 120.429688 202.65625 122.097656 L 95.742188 173.371094 C 94.003906 174.203125 93.273438 176.285156 94.105469 178.023438 L 124.265625 240.914062 C 125.097656 242.652344 127.179688 243.382812 128.917969 242.550781 L 242.121094 188.261719 Z M 221.011719 144.238281 " fill-opacity="1" fill-rule="nonzero"/></g></g></g></g><g clip-path="url(#9868df5168)"><g clip-path="url(#0162c02d48)"><g clip-path="url(#66044909a9)"><g clip-path="url(#2ee2ec675d)"><path fill="#f5dcb4" d="M 211.960938 125.371094 C 210.296875 121.898438 206.128906 120.429688 202.65625 122.097656 L 95.742188 173.371094 C 94.003906 174.203125 93.273438 176.285156 94.105469 178.023438 L 98.628906 187.457031 L 214.980469 131.660156 Z M 211.960938 125.371094 " fill-opacity="1" fill-rule="nonzero"/></g></g></g></g><g clip-path="url(#c95223de6c)"><g clip-path="url(#a8d4168342)"><g clip-path="url(#757ff1d94a)"><g clip-path="url(#6a46194fd8)"><path fill="#ebc9a0" d="M 211.960938 125.371094 C 210.296875 121.898438 206.128906 120.429688 202.65625 122.097656 L 199.511719 123.605469 C 201.25 122.773438 203.332031 123.503906 204.164062 125.242188 C 204.996094 126.976562 204.265625 129.0625 202.527344 129.894531 L 123.914062 167.59375 C 120.441406 169.261719 118.976562 173.425781 120.640625 176.898438 L 214.980469 131.660156 Z M 211.960938 125.371094 " fill-opacity="1" fill-rule="nonzero"/></g></g></g></g><g clip-path="url(#abef636ef8)"><g clip-path="url(#cf9f41ef24)"><g clip-path="url(#c4cd19f865)"><g clip-path="url(#6821a842f7)"><path fill="#dcb991" d="M 214.980469 131.660156 L 242.121094 188.261719 L 147.785156 233.503906 L 120.640625 176.898438 Z M 214.980469 131.660156 " fill-opacity="1" fill-rule="nonzero"/></g></g></g></g><g clip-path="url(#2a0c8a756c)"><g clip-path="url(#bff653ef6f)"><g clip-path="url(#1a0203aab8)"><g clip-path="url(#7226d6d211)"><path fill="#c8a582" d="M 129.945312 180.171875 C 128.28125 176.699219 129.746094 172.535156 133.21875 170.867188 L 208.6875 134.675781 C 212.164062 133.011719 213.628906 128.84375 211.960938 125.371094 L 221.011719 144.238281 L 139.25 183.445312 C 135.777344 185.113281 131.609375 183.648438 129.945312 180.171875 Z M 129.945312 180.171875 " fill-opacity="1" fill-rule="nonzero"/></g></g></g></g><g clip-path="url(#902ac7875b)"><g clip-path="url(#d35d28596b)"><g clip-path="url(#5e831a9038)"><g clip-path="url(#12a0848866)"><path fill="#f5dcb4" d="M 236.089844 175.683594 L 119.742188 231.480469 L 124.265625 240.914062 C 125.097656 242.652344 127.179688 243.382812 128.917969 242.550781 L 242.121094 188.261719 Z M 236.089844 175.683594 " fill-opacity="1" fill-rule="nonzero"/></g></g></g></g><g clip-path="url(#5b5910028d)"><g clip-path="url(#47f61a7095)"><g clip-path="url(#e2eae3e02e)"><g clip-path="url(#464c544938)"><path fill="#ebc9a0" d="M 236.089844 175.683594 L 242.121094 188.261719 L 147.785156 233.503906 L 141.753906 220.925781 Z M 236.089844 175.683594 " fill-opacity="1" fill-rule="nonzero"/></g></g></g></g><g clip-path="url(#b2c6c58e0f)"><g clip-path="url(#818e6ed329)"><g clip-path="url(#6b2fe772b8)"><g clip-path="url(#7a76aeae30)"><path fill="#dcb991" d="M 272.832031 123.253906 C 272 121.515625 269.917969 120.785156 268.179688 121.617188 L 246.167969 132.175781 L 249.183594 138.464844 L 271.195312 127.90625 C 272.933594 127.074219 273.664062 124.992188 272.832031 123.253906 Z M 272.832031 123.253906 " fill-opacity="1" fill-rule="nonzero"/></g></g></g></g><g clip-path="url(#55432da7da)"><g clip-path="url(#ed996ca4dc)"><g clip-path="url(#de49f8b56e)"><g clip-path="url(#48e45bcf7f)"><path fill="#dcb991" d="M 278.863281 135.832031 C 278.03125 134.09375 275.949219 133.363281 274.210938 134.195312 L 252.199219 144.753906 L 255.214844 151.042969 L 277.226562 140.484375 C 278.964844 139.652344 279.699219 137.570312 278.863281 135.832031 Z M 278.863281 135.832031 " fill-opacity="1" fill-rule="nonzero"/></g></g></g></g><g clip-path="url(#1493709f95)"><g clip-path="url(#f2c5b4ac9f)"><g clip-path="url(#efb9c2ff7e)"><g clip-path="url(#86ebff297a)"><path fill="#dcb991" d="M 290.929688 160.988281 C 290.09375 159.25 288.015625 158.519531 286.277344 159.351562 L 264.265625 169.910156 L 267.28125 176.199219 L 289.292969 165.640625 C 291.03125 164.808594 291.761719 162.726562 290.929688 160.988281 Z M 290.929688 160.988281 " fill-opacity="1" fill-rule="nonzero"/></g></g></g></g><g clip-path="url(#f24042fa60)"><g clip-path="url(#d026614ad0)"><g clip-path="url(#b23848c1cb)"><g clip-path="url(#b09743e5f8)"><path fill="#dcb991" d="M 296.960938 173.566406 C 296.125 171.828125 294.046875 171.097656 292.308594 171.929688 L 270.296875 182.488281 L 273.3125 188.777344 L 295.324219 178.222656 C 297.0625 177.386719 297.792969 175.304688 296.960938 173.566406 Z M 296.960938 173.566406 " fill-opacity="1" fill-rule="nonzero"/></g></g></g></g><g clip-path="url(#4ce391bc1d)"><g clip-path="url(#d0b076e097)"><g clip-path="url(#e2a1c3c5d0)"><g clip-path="url(#8a2be0dbca)"><path fill="#dcb991" d="M 302.992188 186.148438 C 302.160156 184.410156 300.078125 183.675781 298.339844 184.511719 L 276.328125 195.066406 L 279.34375 201.355469 L 301.355469 190.800781 C 303.09375 189.964844 303.824219 187.882812 302.992188 186.148438 Z M 302.992188 186.148438 " fill-opacity="1" fill-rule="nonzero"/></g></g></g></g><g clip-path="url(#52c44ff759)"><g clip-path="url(#fff938d386)"><g clip-path="url(#3ae064bc2f)"><g clip-path="url(#4987ce7b86)"><path fill="#dcb991" d="M 284.898438 148.410156 C 284.0625 146.671875 281.980469 145.941406 280.242188 146.773438 L 258.230469 157.332031 L 261.246094 163.621094 L 283.261719 153.0625 C 284.996094 152.230469 285.730469 150.148438 284.898438 148.410156 Z M 284.898438 148.410156 " fill-opacity="1" fill-rule="nonzero"/></g></g></g></g><g clip-path="url(#832d8516b4)"><g clip-path="url(#17e45ca397)"><g clip-path="url(#da0b9c8203)"><g clip-path="url(#27801ff956)"><path fill="#ebc9a0" d="M 163.121094 249.355469 C 164.789062 252.828125 168.953125 254.292969 172.425781 252.628906 L 279.34375 201.355469 C 281.082031 200.523438 281.8125 198.4375 280.980469 196.703125 L 250.820312 133.8125 C 249.988281 132.074219 247.902344 131.339844 246.167969 132.175781 L 139.25 183.445312 C 135.777344 185.113281 131.609375 183.648438 129.945312 180.171875 L 151.058594 224.199219 Z M 163.121094 249.355469 " fill-opacity="1" fill-rule="nonzero"/></g></g></g></g><g clip-path="url(#ad91483ac8)"><g clip-path="url(#ef722eccb4)"><g clip-path="url(#2fe1b2c382)"><g clip-path="url(#73297a2324)"><path fill="#f5dcb4" d="M 276.457031 187.269531 L 166.394531 240.050781 C 162.921875 241.714844 158.753906 240.25 157.089844 236.777344 L 163.121094 249.355469 C 164.789062 252.828125 168.953125 254.292969 172.425781 252.628906 L 279.34375 201.355469 C 281.082031 200.523438 281.8125 198.4375 280.980469 196.703125 Z M 276.457031 187.269531 " fill-opacity="1" fill-rule="nonzero"/></g></g></g></g><g clip-path="url(#80602f9f45)"><g clip-path="url(#920c4eabd0)"><g clip-path="url(#0b9812f800)"><g clip-path="url(#ddada9eae3)"><path fill="#f5dcb4" d="M 250.820312 133.808594 C 249.988281 132.074219 247.902344 131.339844 246.167969 132.175781 L 139.25 183.445312 C 135.777344 185.113281 131.609375 183.648438 129.945312 180.171875 L 135.976562 192.75 C 137.644531 196.226562 141.808594 197.691406 145.28125 196.023438 L 255.34375 143.246094 Z M 250.820312 133.808594 " fill-opacity="1" fill-rule="nonzero"/></g></g></g></g></svg>