<svg xmlns="http://www.w3.org/2000/svg" xmlns:xlink="http://www.w3.org/1999/xlink" width="500" zoomAndPan="magnify" viewBox="0 0 375 374.999991" height="500" preserveAspectRatio="xMidYMid meet" version="1.0"><defs><clipPath id="c65b61a801"><path d="M 45.335938 59.699219 L 329.664062 59.699219 L 329.664062 315.300781 L 45.335938 315.300781 Z M 45.335938 59.699219 " clip-rule="nonzero"/></clipPath><clipPath id="0b02b7be62"><path d="M 62.585938 59.699219 L 312.414062 59.699219 C 316.988281 59.699219 321.378906 61.519531 324.613281 64.753906 C 327.847656 67.988281 329.664062 72.375 329.664062 76.949219 L 329.664062 298.050781 C 329.664062 302.625 327.847656 307.011719 324.613281 310.246094 C 321.378906 313.480469 316.988281 315.300781 312.414062 315.300781 L 62.585938 315.300781 C 58.011719 315.300781 53.621094 313.480469 50.386719 310.246094 C 47.152344 307.011719 45.335938 302.625 45.335938 298.050781 L 45.335938 76.949219 C 45.335938 72.375 47.152344 67.988281 50.386719 64.753906 C 53.621094 61.519531 58.011719 59.699219 62.585938 59.699219 " clip-rule="nonzero"/></clipPath><clipPath id="718a66837f"><path d="M 168 127 L 207 127 L 207 296.660156 L 168 296.660156 Z M 168 127 " clip-rule="nonzero"/></clipPath><clipPath id="dfa2c540c2"><path d="M 139 78.410156 L 188 78.410156 L 188 130 L 139 130 Z M 139 78.410156 " clip-rule="nonzero"/></clipPath><clipPath id="c13c38b00d"><path d="M 187 78.410156 L 236 78.410156 L 236 130 L 187 130 Z M 187 78.410156 " clip-rule="nonzero"/></clipPath><clipPath id="e08ac2d3ab"><path d="M 149 78.410156 L 226 78.410156 L 226 113 L 149 113 Z M 149 78.410156 " clip-rule="nonzero"/></clipPath></defs><rect x="-37.5" width="450" fill="#ffffff" y="-37.499999" height="449.999989" fill-opacity="1"/><rect x="-37.5" width="450" fill="#ffffff" y="-37.499999" height="449.999989" fill-opacity="1"/><rect x="-37.5" width="450" fill="#63e1b4" y="-37.499999" height="449.999989" fill-opacity="1"/><g clip-path="url(#c65b61a801)"><g clip-path="url(#0b02b7be62)"><path fill="#ffffff" d="M 45.335938 59.699219 L 329.664062 59.699219 L 329.664062 315.300781 L 45.335938 315.300781 Z M 45.335938 59.699219 " fill-opacity="1" fill-rule="nonzero"/></g></g><g clip-path="url(#718a66837f)"><path fill="#707487" d="M 202.695312 161.789062 L 195.113281 127.679688 L 179.953125 127.679688 L 172.375 161.789062 L 168.691406 275.996094 C 168.621094 278.089844 169.425781 280.117188 170.90625 281.601562 L 184.855469 295.550781 C 186.335938 297.027344 188.734375 297.027344 190.214844 295.550781 L 204.164062 281.601562 C 205.644531 280.121094 206.445312 278.089844 206.378906 275.996094 Z M 202.695312 161.789062 " fill-opacity="1" fill-rule="nonzero"/></g><path fill="#959cb5" d="M 170.300781 226.097656 L 205.917969 261.714844 L 205.15625 238.097656 L 171.015625 203.855469 Z M 170.300781 226.097656 " fill-opacity="1" fill-rule="nonzero"/><path fill="#5b5d6e" d="M 195.113281 131.46875 L 179.953125 131.46875 C 177.863281 131.46875 176.164062 129.773438 176.164062 127.679688 L 176.164062 112.519531 L 198.90625 112.519531 L 198.90625 127.679688 C 198.902344 129.773438 197.207031 131.46875 195.113281 131.46875 Z M 195.113281 131.46875 " fill-opacity="1" fill-rule="nonzero"/><g clip-path="url(#dfa2c540c2)"><path fill="#e4eaf8" d="M 149.632812 78.410156 L 187.535156 112.519531 L 167.960938 128.828125 C 166.257812 130.25 163.703125 129.910156 162.429688 128.089844 L 139.839844 95.820312 C 138.902344 94.476562 138.929688 92.683594 139.914062 91.371094 Z M 149.632812 78.410156 " fill-opacity="1" fill-rule="nonzero"/></g><g clip-path="url(#c13c38b00d)"><path fill="#e4eaf8" d="M 225.433594 78.410156 L 187.535156 112.519531 L 207.105469 128.828125 C 208.8125 130.25 211.367188 129.910156 212.636719 128.089844 L 235.226562 95.820312 C 236.167969 94.476562 236.136719 92.683594 235.15625 91.371094 Z M 225.433594 78.410156 " fill-opacity="1" fill-rule="nonzero"/></g><g clip-path="url(#e08ac2d3ab)"><path fill="#d5dced" d="M 225.433594 78.410156 L 149.632812 78.410156 L 187.535156 112.519531 Z M 225.433594 78.410156 " fill-opacity="1" fill-rule="nonzero"/></g><path fill="#5b5d6e" d="M 170.003906 235.21875 L 206.230469 271.445312 L 205.605469 251.984375 L 170.597656 216.875 Z M 170.003906 235.21875 " fill-opacity="1" fill-rule="nonzero"/><path fill="#959cb5" d="M 203.898438 199.054688 L 203.132812 175.429688 L 175.503906 147.714844 L 172.375 161.789062 L 172.195312 167.351562 Z M 203.898438 199.054688 " fill-opacity="1" fill-rule="nonzero"/><path fill="#5b5d6e" d="M 204.210938 208.789062 L 203.578125 189.203125 L 173.0625 158.6875 L 172.375 161.789062 L 171.902344 176.476562 Z M 204.210938 208.789062 " fill-opacity="1" fill-rule="nonzero"/></svg>