<svg xmlns="http://www.w3.org/2000/svg" xmlns:xlink="http://www.w3.org/1999/xlink" width="500" zoomAndPan="magnify" viewBox="0 0 375 374.999991" height="500" preserveAspectRatio="xMidYMid meet" version="1.0"><defs><clipPath id="258912e238"><path d="M 45.335938 59.699219 L 329.664062 59.699219 L 329.664062 315.300781 L 45.335938 315.300781 Z M 45.335938 59.699219 " clip-rule="nonzero"/></clipPath><clipPath id="69f3d28063"><path d="M 62.585938 59.699219 L 312.414062 59.699219 C 316.988281 59.699219 321.378906 61.519531 324.613281 64.753906 C 327.847656 67.988281 329.664062 72.375 329.664062 76.949219 L 329.664062 298.050781 C 329.664062 302.625 327.847656 307.011719 324.613281 310.246094 C 321.378906 313.480469 316.988281 315.300781 312.414062 315.300781 L 62.585938 315.300781 C 58.011719 315.300781 53.621094 313.480469 50.386719 310.246094 C 47.152344 307.011719 45.335938 302.625 45.335938 298.050781 L 45.335938 76.949219 C 45.335938 72.375 47.152344 67.988281 50.386719 64.753906 C 53.621094 61.519531 58.011719 59.699219 62.585938 59.699219 " clip-rule="nonzero"/></clipPath><clipPath id="31d1de45d6"><path d="M 129 82.808594 L 246 82.808594 L 246 134 L 129 134 Z M 129 82.808594 " clip-rule="nonzero"/></clipPath><clipPath id="42fc7ab6f9"><path d="M 148 82.808594 L 227 82.808594 L 227 127 L 148 127 Z M 148 82.808594 " clip-rule="nonzero"/></clipPath><clipPath id="0983ef396e"><path d="M 133 274 L 242 274 L 242 292.058594 L 133 292.058594 Z M 133 274 " clip-rule="nonzero"/></clipPath></defs><rect x="-37.5" width="450" fill="#ffffff" y="-37.499999" height="449.999989" fill-opacity="1"/><rect x="-37.5" width="450" fill="#ffffff" y="-37.499999" height="449.999989" fill-opacity="1"/><rect x="-37.5" width="450" fill="#63e1b4" y="-37.499999" height="449.999989" fill-opacity="1"/><g clip-path="url(#258912e238)"><g clip-path="url(#69f3d28063)"><path fill="#ffffff" d="M 45.335938 59.699219 L 329.664062 59.699219 L 329.664062 315.300781 L 45.335938 315.300781 Z M 45.335938 59.699219 " fill-opacity="1" fill-rule="nonzero"/></g></g><g clip-path="url(#31d1de45d6)"><path fill="#5b5d6e" d="M 245.15625 111.671875 L 229.238281 86.199219 C 227.917969 84.089844 225.605469 82.808594 223.117188 82.808594 L 151.746094 82.808594 C 149.257812 82.808594 146.945312 84.089844 145.628906 86.199219 L 129.707031 111.671875 L 187.433594 133.316406 Z M 245.15625 111.671875 " fill-opacity="1" fill-rule="nonzero"/></g><g clip-path="url(#42fc7ab6f9)"><path fill="#4e4f5f" d="M 226.171875 83.535156 C 225.226562 83.089844 224.199219 82.808594 223.117188 82.808594 L 151.746094 82.808594 C 150.667969 82.808594 149.640625 83.089844 148.691406 83.535156 L 178.914062 106.78125 C 180.226562 107.792969 180.226562 109.773438 178.914062 110.785156 L 162.015625 123.785156 L 169.96875 126.765625 L 187.433594 113.335938 Z M 226.171875 83.535156 " fill-opacity="1" fill-rule="nonzero"/></g><path fill="#707487" d="M 270.199219 246.175781 L 270.878906 260.496094 C 270.953125 261.988281 270.097656 263.367188 268.734375 263.96875 L 241.339844 276.050781 L 241.335938 276.050781 L 241.335938 246.175781 Z M 270.199219 246.175781 " fill-opacity="1" fill-rule="nonzero"/><path fill="#5b5d6e" d="M 241.34375 276.050781 L 241.335938 276.050781 L 241.335938 246.175781 L 254.945312 246.175781 L 255.9375 269.613281 Z M 241.34375 276.050781 " fill-opacity="1" fill-rule="nonzero"/><g clip-path="url(#0983ef396e)"><path fill="#5b5d6e" d="M 133.316406 274.019531 L 133.316406 288.449219 C 133.316406 290.441406 134.933594 292.058594 136.925781 292.058594 L 237.941406 292.058594 C 239.933594 292.058594 241.550781 290.441406 241.550781 288.449219 L 241.550781 274.019531 Z M 133.316406 274.019531 " fill-opacity="1" fill-rule="nonzero"/></g><path fill="#707487" d="M 104.667969 246.175781 L 103.984375 260.496094 C 103.914062 261.988281 104.769531 263.367188 106.132812 263.96875 L 133.523438 276.050781 L 133.527344 276.050781 L 133.527344 246.175781 Z M 104.667969 246.175781 " fill-opacity="1" fill-rule="nonzero"/><path fill="#5b5d6e" d="M 133.523438 276.050781 L 133.527344 276.050781 L 133.527344 246.175781 L 119.921875 246.175781 L 118.929688 269.613281 Z M 133.523438 276.050781 " fill-opacity="1" fill-rule="nonzero"/><path fill="#707487" d="M 270.882812 132.785156 C 270.597656 124.316406 265.394531 116.796875 257.574219 113.535156 L 230.59375 102.292969 C 228.414062 101.386719 225.933594 101.601562 223.941406 102.867188 L 193.242188 122.402344 C 189.699219 124.660156 185.167969 124.660156 181.621094 122.402344 L 150.921875 102.867188 C 148.933594 101.601562 146.449219 101.386719 144.273438 102.292969 L 117.292969 113.535156 C 109.472656 116.796875 104.269531 124.316406 103.984375 132.785156 L 100.132812 246.269531 C 100.082031 247.769531 100.964844 249.148438 102.355469 249.722656 L 126.605469 259.585938 L 126.292969 270.226562 C 126.1875 274.28125 129.449219 277.625 133.503906 277.625 L 241.363281 277.625 C 245.421875 277.625 248.679688 274.28125 248.578125 270.226562 L 248.261719 259.585938 L 272.515625 249.722656 C 273.902344 249.148438 274.785156 247.769531 274.734375 246.269531 Z M 270.882812 132.785156 " fill-opacity="1" fill-rule="nonzero"/><path fill="#5b5d6e" d="M 102.355469 249.722656 L 126.605469 259.589844 L 129.707031 154.964844 L 129.707031 149.5 C 129.707031 143.757812 127.429688 138.25 123.367188 134.191406 L 108.957031 119.78125 C 105.976562 123.390625 104.148438 127.914062 103.984375 132.785156 L 100.132812 246.269531 C 100.082031 247.769531 100.964844 249.148438 102.355469 249.722656 Z M 102.355469 249.722656 " fill-opacity="1" fill-rule="nonzero"/><path fill="#5b5d6e" d="M 215.035156 215.738281 C 217.859375 232.433594 223.652344 245.617188 226.816406 251.925781 C 227.757812 253.796875 226.386719 255.980469 224.292969 255.980469 L 150.574219 255.980469 C 148.476562 255.980469 147.109375 253.796875 148.050781 251.925781 C 151.210938 245.617188 157.007812 232.433594 159.828125 215.738281 C 160.125 213.988281 161.609375 212.6875 163.378906 212.6875 L 211.484375 212.6875 C 213.257812 212.6875 214.742188 213.988281 215.035156 215.738281 Z M 215.035156 215.738281 " fill-opacity="1" fill-rule="nonzero"/><path fill="#5b5d6e" d="M 272.511719 249.722656 L 248.257812 259.589844 L 245.15625 154.964844 L 245.15625 149.5 C 245.15625 143.757812 247.4375 138.25 251.496094 134.191406 L 265.910156 119.78125 C 268.886719 123.390625 270.71875 127.914062 270.882812 132.785156 L 274.734375 246.269531 C 274.785156 247.769531 273.898438 249.148438 272.511719 249.722656 Z M 272.511719 249.722656 " fill-opacity="1" fill-rule="nonzero"/><path fill="#4e4f5f" d="M 252.480469 158.464844 C 252.421875 156.515625 250.824219 154.964844 248.875 154.964844 C 246.839844 154.964844 245.207031 156.644531 245.265625 158.675781 L 248.257812 259.589844 L 255.390625 256.6875 Z M 252.480469 158.464844 " fill-opacity="1" fill-rule="nonzero"/><path fill="#5b5d6e" d="M 194.648438 176.609375 C 196.640625 176.609375 198.257812 174.992188 198.257812 173 L 198.257812 119.214844 L 193.242188 122.402344 C 192.546875 122.847656 191.800781 123.179688 191.039062 123.449219 L 191.039062 173.003906 C 191.039062 174.996094 192.65625 176.609375 194.648438 176.609375 Z M 194.648438 176.609375 " fill-opacity="1" fill-rule="nonzero"/><path fill="#5b5d6e" d="M 180.21875 176.609375 C 182.210938 176.609375 183.824219 174.992188 183.824219 173 L 183.824219 123.449219 C 183.066406 123.179688 182.320312 122.847656 181.621094 122.402344 L 176.609375 119.214844 L 176.609375 173.003906 C 176.609375 174.996094 178.222656 176.609375 180.21875 176.609375 Z M 180.21875 176.609375 " fill-opacity="1" fill-rule="nonzero"/><path fill="#4e4f5f" d="M 183.824219 173.003906 C 183.824219 173.480469 183.734375 173.941406 183.550781 174.382812 C 183.367188 174.824219 183.105469 175.214844 182.769531 175.554688 C 182.429688 175.890625 182.039062 176.152344 181.597656 176.335938 C 181.15625 176.519531 180.695312 176.609375 180.21875 176.609375 C 179.738281 176.609375 179.277344 176.519531 178.835938 176.335938 C 178.394531 176.152344 178.003906 175.890625 177.667969 175.554688 C 177.328125 175.214844 177.066406 174.824219 176.882812 174.382812 C 176.699219 173.941406 176.609375 173.480469 176.609375 173.003906 C 176.609375 172.523438 176.699219 172.0625 176.882812 171.621094 C 177.066406 171.179688 177.328125 170.789062 177.667969 170.449219 C 178.003906 170.113281 178.394531 169.851562 178.835938 169.667969 C 179.277344 169.484375 179.738281 169.394531 180.21875 169.394531 C 180.695312 169.394531 181.15625 169.484375 181.597656 169.667969 C 182.039062 169.851562 182.429688 170.113281 182.769531 170.449219 C 183.105469 170.789062 183.367188 171.179688 183.550781 171.621094 C 183.734375 172.0625 183.824219 172.523438 183.824219 173.003906 Z M 183.824219 173.003906 " fill-opacity="1" fill-rule="nonzero"/><path fill="#4e4f5f" d="M 198.257812 173.003906 C 198.257812 173.480469 198.164062 173.941406 197.980469 174.382812 C 197.796875 174.824219 197.539062 175.214844 197.199219 175.554688 C 196.859375 175.890625 196.472656 176.152344 196.027344 176.335938 C 195.585938 176.519531 195.125 176.609375 194.648438 176.609375 C 194.167969 176.609375 193.710938 176.519531 193.269531 176.335938 C 192.824219 176.152344 192.433594 175.890625 192.097656 175.554688 C 191.757812 175.214844 191.5 174.824219 191.316406 174.382812 C 191.132812 173.941406 191.039062 173.480469 191.039062 173.003906 C 191.039062 172.523438 191.132812 172.0625 191.316406 171.621094 C 191.5 171.179688 191.757812 170.789062 192.097656 170.449219 C 192.433594 170.113281 192.824219 169.851562 193.269531 169.667969 C 193.710938 169.484375 194.167969 169.394531 194.648438 169.394531 C 195.125 169.394531 195.585938 169.484375 196.027344 169.667969 C 196.472656 169.851562 196.859375 170.113281 197.199219 170.449219 C 197.539062 170.789062 197.796875 171.179688 197.980469 171.621094 C 198.164062 172.0625 198.257812 172.523438 198.257812 173.003906 Z M 198.257812 173.003906 " fill-opacity="1" fill-rule="nonzero"/><path fill="#4e4f5f" d="M 122.386719 158.464844 L 119.472656 256.6875 L 126.605469 259.585938 L 129.597656 158.675781 C 129.660156 156.644531 128.027344 154.960938 125.992188 154.960938 C 124.042969 154.964844 122.445312 156.515625 122.386719 158.464844 Z M 122.386719 158.464844 " fill-opacity="1" fill-rule="nonzero"/></svg>