<svg xmlns="http://www.w3.org/2000/svg" xmlns:xlink="http://www.w3.org/1999/xlink" width="500" zoomAndPan="magnify" viewBox="0 0 375 374.999991" height="500" preserveAspectRatio="xMidYMid meet" version="1.0"><defs><clipPath id="db4d1d2390"><path d="M 45.335938 59.699219 L 329.664062 59.699219 L 329.664062 315.300781 L 45.335938 315.300781 Z M 45.335938 59.699219 " clip-rule="nonzero"/></clipPath><clipPath id="03ec6e82ec"><path d="M 62.585938 59.699219 L 312.414062 59.699219 C 316.988281 59.699219 321.378906 61.519531 324.613281 64.753906 C 327.847656 67.988281 329.664062 72.375 329.664062 76.949219 L 329.664062 298.050781 C 329.664062 302.625 327.847656 307.011719 324.613281 310.246094 C 321.378906 313.480469 316.988281 315.300781 312.414062 315.300781 L 62.585938 315.300781 C 58.011719 315.300781 53.621094 313.480469 50.386719 310.246094 C 47.152344 307.011719 45.335938 302.625 45.335938 298.050781 L 45.335938 76.949219 C 45.335938 72.375 47.152344 67.988281 50.386719 64.753906 C 53.621094 61.519531 58.011719 59.699219 62.585938 59.699219 " clip-rule="nonzero"/></clipPath><clipPath id="d88e5fd975"><path d="M 154 75.109375 L 169 75.109375 L 169 106 L 154 106 Z M 154 75.109375 " clip-rule="nonzero"/></clipPath><clipPath id="18629ad5e5"><path d="M 206 75.109375 L 221 75.109375 L 221 106 L 206 106 Z M 206 75.109375 " clip-rule="nonzero"/></clipPath><clipPath id="56579d54e2"><path d="M 131 120 L 244 120 L 244 300.109375 L 131 300.109375 Z M 131 120 " clip-rule="nonzero"/></clipPath></defs><rect x="-37.5" width="450" fill="#ffffff" y="-37.499999" height="449.999989" fill-opacity="1"/><rect x="-37.5" width="450" fill="#ffffff" y="-37.499999" height="449.999989" fill-opacity="1"/><rect x="-37.5" width="450" fill="#63e1b4" y="-37.499999" height="449.999989" fill-opacity="1"/><g clip-path="url(#db4d1d2390)"><g clip-path="url(#03ec6e82ec)"><path fill="#ffffff" d="M 45.335938 59.699219 L 329.664062 59.699219 L 329.664062 315.300781 L 45.335938 315.300781 Z M 45.335938 59.699219 " fill-opacity="1" fill-rule="nonzero"/></g></g><g clip-path="url(#d88e5fd975)"><path fill="#ff9ba9" d="M 154.386719 79.324219 L 157.609375 105.109375 L 168.859375 105.109375 L 168.859375 78.859375 C 168.859375 76.789062 167.179688 75.109375 165.109375 75.109375 L 158.105469 75.109375 C 155.851562 75.109375 154.105469 77.085938 154.386719 79.324219 Z M 154.386719 79.324219 " fill-opacity="1" fill-rule="nonzero"/></g><g clip-path="url(#18629ad5e5)"><path fill="#ff9ba9" d="M 206.359375 78.859375 L 206.359375 105.109375 L 217.609375 105.109375 L 220.832031 79.324219 C 221.113281 77.085938 219.367188 75.109375 217.113281 75.109375 L 210.109375 75.109375 C 208.039062 75.109375 206.359375 76.789062 206.359375 78.859375 Z M 206.359375 78.859375 " fill-opacity="1" fill-rule="nonzero"/></g><g clip-path="url(#56579d54e2)"><path fill="#ff9ba9" d="M 217.609375 131.359375 L 187.609375 120.109375 L 157.609375 131.359375 C 157.609375 131.359375 136.308594 245.160156 131.703125 296.011719 C 131.503906 298.214844 133.230469 300.109375 135.441406 300.109375 L 239.78125 300.109375 C 241.992188 300.109375 243.714844 298.214844 243.515625 296.011719 C 238.910156 245.160156 217.609375 131.359375 217.609375 131.359375 Z M 217.609375 131.359375 " fill-opacity="1" fill-rule="nonzero"/></g><path fill="#ff8b9b" d="M 183.859375 123.859375 L 183.859375 206.359375 C 183.859375 208.433594 185.535156 210.109375 187.609375 210.109375 C 189.683594 210.109375 191.359375 208.433594 191.359375 206.359375 L 191.359375 123.859375 Z M 183.859375 123.859375 " fill-opacity="1" fill-rule="nonzero"/><path fill="#ff8b9b" d="M 210.074219 179.578125 L 202.574219 127.078125 L 195.148438 128.140625 L 202.648438 180.640625 C 202.914062 182.511719 204.519531 183.859375 206.355469 183.859375 C 206.53125 183.859375 206.710938 183.847656 206.890625 183.824219 C 208.941406 183.53125 210.367188 181.628906 210.074219 179.578125 Z M 210.074219 179.578125 " fill-opacity="1" fill-rule="nonzero"/><path fill="#ff8b9b" d="M 172.644531 127.078125 L 165.144531 179.578125 C 164.851562 181.628906 166.277344 183.53125 168.328125 183.824219 C 168.507812 183.847656 168.6875 183.859375 168.863281 183.859375 C 170.703125 183.859375 172.304688 182.511719 172.574219 180.640625 L 180.074219 128.140625 Z M 172.644531 127.078125 " fill-opacity="1" fill-rule="nonzero"/><path fill="#ffaab9" d="M 185.796875 110.96875 C 177.375 104.042969 164.5 102.109375 157.96875 101.570312 C 155.75 101.386719 153.871094 103.183594 153.949219 105.410156 C 154.171875 111.550781 154.941406 123.355469 157.609375 131.359375 C 157.609375 131.359375 169.328125 131.359375 182.410156 128.769531 C 185.84375 128.089844 189.378906 128.089844 192.808594 128.769531 C 205.890625 131.359375 217.609375 131.359375 217.609375 131.359375 C 220.277344 123.355469 221.046875 111.550781 221.269531 105.410156 C 221.351562 103.183594 219.472656 101.386719 217.253906 101.570312 C 210.71875 102.109375 197.84375 104.042969 189.421875 110.96875 C 188.363281 111.839844 186.855469 111.839844 185.796875 110.96875 Z M 185.796875 110.96875 " fill-opacity="1" fill-rule="nonzero"/></svg>